<svg xmlns="http://www.w3.org/2000/svg" viewBox="0 0 168.6 117.14"><defs><style>.cls-1{fill:#008320;opacity:0.83;}.cls-2{fill:#e90006;opacity:0.89;}.cls-3{font-size:22.75px;font-family:Helvetica-BoldOblique, Helvetica;font-weight:700;font-style:oblique;}.cls-3,.cls-4{fill:#fff;}.cls-4{stroke:#fff;stroke-miterlimit:10;stroke-width:0.75px;}</style></defs><g id="Layer_2" data-name="Layer 2"><g id="Layer_1-2" data-name="Layer 1"><path class="cls-1" d="M160.86,30.72,50.91.38a10.55,10.55,0,0,0-13,7.36L28.77,40.93l-5.5,19.93a10.55,10.55,0,0,0,7.37,13l109.94,30.35a10.54,10.54,0,0,0,11.28-3.89,10.41,10.41,0,0,0,1.7-3.47l14.66-53.12A10.56,10.56,0,0,0,160.86,30.72ZM139.7,83.32A4.28,4.28,0,1,1,144,79,4.28,4.28,0,0,1,139.7,83.32Z"/><path class="cls-2" d="M140.68,40.93H11.18A11.18,11.18,0,0,0,0,52.11V106a11.18,11.18,0,0,0,11.18,11.17h129.5A11.18,11.18,0,0,0,151.86,106V52.11A11.18,11.18,0,0,0,140.68,40.93Zm-1,33.83A4.28,4.28,0,1,1,135.42,79,4.27,4.27,0,0,1,139.7,74.76Z"/><text class="cls-3" transform="translate(16.56 89.99) scale(0.99 1)">Ankify</text><path class="cls-4" d="M144,79a4.28,4.28,0,1,1-4.27-4.28A4.28,4.28,0,0,1,144,79Z"/></g></g></svg>